<svg width="134" height="27" viewBox="0 0 134 27" fill="none" xmlns="http://www.w3.org/2000/svg">
<path d="M6.368 26.32C3.95733 26.32 1.96267 26 0.384 25.36L0.864 23.024C1.696 23.3653 2.592 23.632 3.552 23.824C4.53333 23.9947 5.55733 24.08 6.624 24.08C8.45867 24.08 9.87733 23.8347 10.88 23.344C11.904 22.832 12.5653 21.9253 12.864 20.624C13.056 19.7707 13.0133 19.12 12.736 18.672C12.4587 18.2027 11.9253 17.808 11.136 17.488C10.368 17.168 9.30133 16.8267 7.936 16.464C5.84533 15.888 4.42667 15.152 3.68 14.256C2.95467 13.36 2.73067 12.1867 3.008 10.736C3.37067 8.98667 4.256 7.61067 5.664 6.608C7.09333 5.584 9.16267 5.072 11.872 5.072C13.0667 5.072 14.1547 5.15733 15.136 5.328C16.1173 5.49867 16.864 5.68 17.376 5.872L16.896 8.176C16.192 7.89867 15.4027 7.68533 14.528 7.536C13.6747 7.38667 12.768 7.312 11.808 7.312C10.0587 7.312 8.65067 7.568 7.584 8.08C6.53867 8.592 5.888 9.47733 5.632 10.736C5.48267 11.44 5.52533 12.0053 5.76 12.432C5.99467 12.8587 6.47467 13.232 7.2 13.552C7.92533 13.8507 8.96 14.1813 10.304 14.544C12.5653 15.1413 14.0693 15.9307 14.816 16.912C15.584 17.8933 15.808 19.1307 15.488 20.624C15.104 22.4373 14.1867 23.8453 12.736 24.848C11.2853 25.8293 9.16267 26.32 6.368 26.32ZM23.2898 26.32C21.6044 26.32 20.3671 25.8187 19.5778 24.816C18.8098 23.8133 18.6284 22.352 19.0338 20.432L21.0818 10.832H23.7058L21.6578 20.528C21.3804 21.8933 21.4658 22.8533 21.9138 23.408C22.3618 23.9413 23.3004 24.208 24.7298 24.208C25.6684 24.208 26.5858 24.0373 27.4818 23.696C28.3778 23.3333 29.1991 22.864 29.9458 22.288L32.3778 10.832H35.0018L31.8018 26H29.4338L29.6258 24.272C28.7724 24.848 27.8338 25.3387 26.8098 25.744C25.7858 26.128 24.6124 26.32 23.2898 26.32ZM40.963 26.32C40.067 26.32 39.171 26.2453 38.275 26.096C37.4003 25.968 36.675 25.808 36.099 25.616L36.579 23.312C37.987 23.824 39.491 24.08 41.091 24.08C42.435 24.08 43.427 23.9413 44.067 23.664C44.707 23.3653 45.1123 22.8213 45.283 22.032C45.411 21.456 45.347 21.0187 45.091 20.72C44.835 20.4213 44.419 20.1547 43.843 19.92C43.267 19.6853 42.5203 19.408 41.603 19.088C40.7923 18.7893 40.0777 18.4693 39.459 18.128C38.8617 17.7653 38.4243 17.3173 38.147 16.784C37.891 16.2507 37.859 15.5467 38.051 14.672C38.3497 13.328 38.9897 12.304 39.971 11.6C40.9737 10.8747 42.6057 10.512 44.867 10.512C45.6777 10.512 46.4457 10.576 47.171 10.704C47.8963 10.8107 48.515 10.9493 49.027 11.12L48.547 13.424C47.3097 12.976 46.0617 12.752 44.803 12.752C43.5443 12.752 42.5843 12.8907 41.923 13.168C41.2617 13.424 40.8457 13.9147 40.675 14.64C40.5683 15.1307 40.611 15.5253 40.803 15.824C41.0163 16.1013 41.379 16.3467 41.891 16.56C42.4243 16.752 43.107 16.9973 43.939 17.296C45.5817 17.8293 46.723 18.4267 47.363 19.088C48.003 19.728 48.1843 20.6987 47.907 22C47.587 23.4933 46.9043 24.592 45.859 25.296C44.8137 25.9787 43.1817 26.32 40.963 26.32ZM55.888 26.32C54.48 26.32 53.4667 25.9253 52.848 25.136C52.2293 24.3253 52.0693 23.2053 52.368 21.776L54.224 12.912H51.92L52.368 10.832H54.672L55.472 7.088L58.256 6.288L57.296 10.832H61.488L60.88 12.912H56.848L54.992 21.648C54.8 22.5653 54.8427 23.2267 55.12 23.632C55.4187 24.016 56.0373 24.208 56.976 24.208C57.2747 24.208 57.616 24.1867 58 24.144C58.384 24.08 58.768 23.9947 59.152 23.888L58.704 25.872C57.8507 26.1707 56.912 26.32 55.888 26.32ZM67.8405 26.32C65.7072 26.32 64.1605 25.7333 63.2005 24.56C62.2618 23.3867 62.0592 21.488 62.5925 18.864C62.9765 17.0293 63.6058 15.4933 64.4805 14.256C65.3552 13.0187 66.4005 12.0907 67.6165 11.472C68.8325 10.832 70.1232 10.512 71.4885 10.512C72.4698 10.512 73.3125 10.6293 74.0165 10.864C74.7205 11.0987 75.3818 11.4613 76.0005 11.952L76.2245 10.832H78.8485L75.6485 26H73.4085L73.5365 24.4C72.6832 25.0613 71.7978 25.552 70.8805 25.872C69.9845 26.1707 68.9712 26.32 67.8405 26.32ZM68.9605 24.208C69.8352 24.208 70.6778 24.0587 71.4885 23.76C72.2992 23.4613 73.0672 23.0027 73.7925 22.384L75.5205 14.128C75.1152 13.6587 74.6138 13.296 74.0165 13.04C73.4192 12.7627 72.6618 12.624 71.7445 12.624C69.9738 12.624 68.5445 13.1467 67.4565 14.192C66.3898 15.2373 65.6432 16.7947 65.2165 18.864C64.8112 20.848 64.8645 22.2347 65.3765 23.024C65.9098 23.8133 67.1045 24.208 68.9605 24.208ZM85.356 7.28L85.868 4.88H88.78L88.268 7.28H85.356ZM81.644 26L84.396 12.912H82.06L82.764 10.832H87.468L84.268 26H81.644ZM88.823 26L92.023 10.832H94.391L94.199 12.56C95.0523 11.9627 96.0017 11.472 97.047 11.088C98.0923 10.704 99.2443 10.512 100.503 10.512C104.172 10.512 105.612 12.368 104.823 16.08L102.743 26H100.119L102.199 16.176C102.476 14.8533 102.412 13.936 102.007 13.424C101.623 12.8907 100.674 12.624 99.159 12.624C98.2843 12.624 97.3563 12.7947 96.375 13.136C95.415 13.4773 94.583 13.9467 93.879 14.544L91.447 26H88.823Z" fill="white"/>
<path d="M106.376 26L118.176 13.2L111.936 0.239998H115.696L120.616 10.76L130.016 0.239998H133.776L122.096 13.2L128.456 26H124.656L119.576 15.72L110.176 26H106.376Z" fill="#969796"/>
</svg>
